# xmcd CD database file
#
# Track frame offsets:
#	187
#	28035
#	50685
#	74825
#	89597
#	111140
#	133885
#	176447
#	206740
#	242702
#	263625
#	307812
#
# Disc length: 4451 seconds
#
# Revision: 0
# Processed by: cddbd v1.5PL3 Copyright (c) Steve Scherf et al.
# Submitted via: CDex 1.51
#
DISCID=b111610c
DTITLE=Beethoven - これがベートーヴェンだ
DYEAR=1996
DGENRE=Classical
TTITLE0=「月光」第１楽章
TTITLE1=「悲愴」第2楽章
TTITLE2=「情熱」第3楽章
TTITLE3=エリーゼのために
TTITLE4=「春」第1楽章
TTITLE5=「皇帝」第1楽章
TTITLE6=ロマンス 第2番
TTITLE7=「運命」第1楽章
TTITLE8=「英雄」第2楽章より
TTITLE9=交響曲 第7番 第3楽章
TTITLE10=「田園」第5楽章
TTITLE11=「合唱」第4楽章より
EXTD=YEAR: 1996
EXTT0=
EXTT1=
EXTT2=
EXTT3=
EXTT4=
EXTT5=
EXTT6=
EXTT7=
EXTT8=
EXTT9=
EXTT10=
EXTT11=
PLAYORDER=
